<svg width="31" height="32" viewBox="0 0 31 32" fill="none" xmlns="http://www.w3.org/2000/svg">
<g clip-path="url(#clip0_93_641)">
<path d="M26.4585 5.03819C20.4045 -1.01401 10.5904 -1.01256 4.53819 5.04152C-1.51401 11.0956 -1.51256 20.9096 4.54152 26.9619C10.5956 33.0141 20.4096 33.0126 26.4619 26.9585C29.3685 24.051 31.0009 20.1079 31 15.9967C30.9992 11.8862 29.3656 7.94432 26.4585 5.03819ZM23.4742 22.0913C23.4736 22.092 23.4729 22.0927 23.4722 22.0934V22.0883L22.6868 22.8684C21.6711 23.8969 20.1919 24.3201 18.786 23.9844C17.3695 23.6053 16.0229 23.0017 14.7973 22.1968C13.6587 21.469 12.6035 20.6184 11.6508 19.6599C10.7743 18.7898 9.98681 17.8343 9.29996 16.8079C8.5487 15.7034 7.95407 14.5002 7.53296 13.2325C7.05022 11.7433 7.45026 10.1092 8.56632 9.0114L9.48596 8.09175C9.74165 7.83491 10.1571 7.834 10.4139 8.08969C10.4146 8.09036 10.4153 8.09103 10.416 8.09175L13.3196 10.9954C13.5764 11.2511 13.5774 11.6666 13.3217 11.9233C13.321 11.924 13.3203 11.9247 13.3196 11.9254L11.6146 13.6304C11.1254 14.1143 11.0639 14.8832 11.47 15.4388C12.0866 16.2851 12.7691 17.0814 13.5108 17.8206C14.3378 18.6512 15.2369 19.4068 16.1975 20.0785C16.7525 20.4656 17.505 20.4003 17.9851 19.9235L19.6333 18.2495C19.8889 17.9926 20.3044 17.9917 20.5612 18.2474C20.5619 18.2481 20.5625 18.2487 20.5633 18.2495L23.4721 21.1635C23.729 21.4191 23.7299 21.8345 23.4742 22.0913Z" fill="#C3A97C"/>
</g>
<defs>
<clipPath id="clip0_93_641">
<rect width="31" height="31" fill="white" transform="translate(0 0.5)"/>
</clipPath>
</defs>
</svg>
