<svg width="31" height="32" viewBox="0 0 31 32" fill="none" xmlns="http://www.w3.org/2000/svg">
<g clip-path="url(#clip0_93_664)">
<path fill-rule="evenodd" clip-rule="evenodd" d="M15.5 0.5C24.0604 0.5 31 7.43958 31 16C31 24.5604 24.0604 31.5 15.5 31.5C6.93958 31.5 0 24.5604 0 16C0 7.43958 6.93958 0.5 15.5 0.5ZM25.3389 22.0087V10.4889L19.5786 16.2488L25.3389 22.0087ZM6.89169 22.2434H24.1087L18.8467 16.9814L16.8412 18.9866C16.7439 19.0836 16.6122 19.138 16.4749 19.138H14.5253C14.4572 19.138 14.3899 19.1247 14.327 19.0987C14.2642 19.0728 14.207 19.0346 14.1589 18.9866L12.1535 16.9814L6.89145 22.2434H6.89169ZM5.66113 10.4885V22.009L11.4214 16.2488L5.66113 10.4885ZM24.6066 9.75659H6.39375L14.7398 18.1026H16.2605L24.6066 9.75659Z" fill="#C3A97C"/>
</g>
<defs>
<clipPath id="clip0_93_664">
<rect width="31" height="31" fill="white" transform="translate(0 0.5)"/>
</clipPath>
</defs>
</svg>
