<svg width="31" height="32" viewBox="0 0 31 32" fill="none" xmlns="http://www.w3.org/2000/svg">
<path fill-rule="evenodd" clip-rule="evenodd" d="M15.4505 1.43701C18.2449 1.4689 20.7694 2.15569 23.024 3.49738C25.2517 4.81228 27.1048 6.67671 28.4061 8.91236C29.7396 11.1805 30.4223 13.7203 30.454 16.5318C30.3748 20.3785 29.1615 23.664 26.8142 26.3882C24.4667 29.1125 21.4603 30.7979 18.348 31.444V20.6589H21.2904L21.9558 16.4206H17.5004V13.6447C17.4757 13.0692 17.6576 12.5038 18.0135 12.0509C18.3698 11.5967 18.9972 11.3579 19.8958 11.3347H22.5863V7.62204C22.5477 7.60962 22.1814 7.5605 21.4874 7.47469C20.7003 7.3826 19.9088 7.33341 19.1164 7.32734C17.3229 7.33562 15.9044 7.84154 14.8611 8.8451C13.8177 9.84837 13.2847 11.2999 13.2621 13.1997V16.4206H9.8715V20.6589H13.2621V31.444C9.44072 30.7979 6.43426 29.1125 4.08685 26.3882C1.73945 23.664 0.526214 20.3785 0.447006 16.5318C0.478696 13.7202 1.16133 11.1804 2.49492 8.91236C3.79624 6.67671 5.64935 4.81229 7.87703 3.49738C10.1315 2.15595 12.656 1.46916 15.4505 1.43701Z" fill="white"/>
</svg>
