<svg width="31" height="32" viewBox="0 0 31 32" fill="none" xmlns="http://www.w3.org/2000/svg">
<path d="M18.4668 16.4673C18.4668 18.1058 17.1385 19.4341 15.5 19.4341C13.8615 19.4341 12.5332 18.1058 12.5332 16.4673C12.5332 14.8287 13.8615 13.5005 15.5 13.5005C17.1385 13.5005 18.4668 14.8287 18.4668 16.4673Z" fill="white"/>
<path d="M22.4383 11.2181C22.2957 10.8317 22.0682 10.4819 21.7725 10.1947C21.4854 9.89911 21.1358 9.67159 20.7491 9.52897C20.4355 9.40717 19.9644 9.26218 19.0966 9.22269C18.1579 9.17988 17.8765 9.17065 15.5 9.17065C13.1233 9.17065 12.8419 9.17964 11.9034 9.22245C11.0356 9.26218 10.5642 9.40717 10.2509 9.52897C9.86417 9.67159 9.51437 9.89911 9.22749 10.1947C8.93185 10.4819 8.70432 10.8314 8.56147 11.2181C8.43967 11.5317 8.29469 12.0031 8.25519 12.8709C8.21238 13.8093 8.20316 14.0908 8.20316 16.4675C8.20316 18.844 8.21238 19.1254 8.25519 20.0641C8.29469 20.9319 8.43967 21.403 8.56147 21.7166C8.70432 22.1033 8.93161 22.4529 9.22725 22.74C9.51437 23.0357 9.86394 23.2632 10.2506 23.4058C10.5642 23.5278 11.0356 23.6728 11.9034 23.7123C12.8419 23.7551 13.1231 23.7641 15.4998 23.7641C17.8767 23.7641 18.1581 23.7551 19.0964 23.7123C19.9641 23.6728 20.4355 23.5278 20.7491 23.4058C21.5254 23.1064 22.1389 22.4929 22.4383 21.7166C22.5601 21.403 22.7051 20.9319 22.7448 20.0641C22.7876 19.1254 22.7966 18.844 22.7966 16.4675C22.7966 14.0908 22.7876 13.8093 22.7448 12.8709C22.7053 12.0031 22.5603 11.5317 22.4383 11.2181ZM15.5 21.0376C12.9757 21.0376 10.9294 18.9915 10.9294 16.4673C10.9294 13.943 12.9757 11.8969 15.5 11.8969C18.024 11.8969 20.0703 13.943 20.0703 16.4673C20.0703 18.9915 18.024 21.0376 15.5 21.0376ZM20.251 12.7843C19.6612 12.7843 19.183 12.3061 19.183 11.7162C19.183 11.1264 19.6612 10.6481 20.251 10.6481C20.8409 10.6481 21.3191 11.1264 21.3191 11.7162C21.3189 12.3061 20.8409 12.7843 20.251 12.7843Z" fill="white"/>
<path d="M15.5 0.967285C6.9409 0.967285 0 7.90818 0 16.4673C0 25.0264 6.9409 31.9673 15.5 31.9673C24.0591 31.9673 31 25.0264 31 16.4673C31 7.90818 24.0591 0.967285 15.5 0.967285ZM24.3467 20.1368C24.3037 21.0842 24.153 21.7311 23.933 22.2973C23.4707 23.4929 22.5256 24.438 21.33 24.9003C20.764 25.1203 20.1169 25.2707 19.1697 25.314C18.2206 25.3573 17.9174 25.3677 15.5002 25.3677C13.0829 25.3677 12.7799 25.3573 11.8305 25.314C10.8833 25.2707 10.2362 25.1203 9.67023 24.9003C9.07612 24.6768 8.53829 24.3266 8.09365 23.8736C7.64097 23.4292 7.2907 22.8912 7.06719 22.2973C6.84724 21.7313 6.69658 21.0842 6.65353 20.137C6.60978 19.1876 6.59961 18.8844 6.59961 16.4673C6.59961 14.0501 6.60978 13.7469 6.6533 12.7978C6.69634 11.8503 6.84676 11.2035 7.06672 10.6373C7.29022 10.0434 7.64073 9.50534 8.09365 9.06094C8.53806 8.60802 9.07612 8.25774 9.67 8.03424C10.2362 7.81429 10.8831 7.66386 11.8305 7.62058C12.7796 7.5773 13.0829 7.56689 15.5 7.56689C17.9171 7.56689 18.2204 7.5773 19.1695 7.62082C20.1169 7.66386 20.7638 7.81429 21.33 8.034C21.9239 8.25751 22.4619 8.60802 22.9066 9.06094C23.3593 9.50558 23.7098 10.0434 23.933 10.6373C24.1532 11.2035 24.3037 11.8503 24.3469 12.7978C24.3902 13.7469 24.4004 14.0501 24.4004 16.4673C24.4004 18.8844 24.3902 19.1876 24.3467 20.1368Z" fill="white"/>
</svg>
