<svg width="32" height="32" viewBox="0 0 32 32" fill="none" xmlns="http://www.w3.org/2000/svg">
<path d="M16 0.967285C12.9344 0.967285 9.93763 1.87634 7.38867 3.57951C4.83971 5.28267 2.85303 7.70344 1.67987 10.5357C0.506716 13.3679 0.199764 16.4845 0.797835 19.4912C1.39591 22.4979 2.87214 25.2597 5.03985 27.4274C7.20757 29.5952 9.9694 31.0714 12.9761 31.6695C15.9828 32.2675 19.0993 31.9606 21.9316 30.7874C24.7639 29.6143 27.1846 27.6276 28.8878 25.0786C30.591 22.5297 31.5 19.5329 31.5 16.4673C31.5 12.3564 29.867 8.41394 26.9602 5.50713C24.0533 2.60032 20.1109 0.967285 16 0.967285ZM11.4928 24.6252H8.11132V13.7324H11.4928V24.6252ZM9.80001 12.2456C9.41085 12.2472 9.02995 12.1334 8.70545 11.9186C8.38095 11.7037 8.12743 11.3975 7.97692 11.0386C7.82642 10.6798 7.78569 10.2843 7.85988 9.90229C7.93407 9.52026 8.11986 9.16881 8.39375 8.89235C8.66765 8.61589 9.01736 8.42684 9.39867 8.34909C9.77999 8.27134 10.1758 8.30838 10.5361 8.45553C10.8963 8.60269 11.2049 8.85334 11.4227 9.17582C11.6406 9.4983 11.7579 9.87813 11.7599 10.2673C11.761 10.7891 11.5555 11.2902 11.1882 11.6609C10.8209 12.0316 10.3218 12.2418 9.80001 12.2456ZM24.1579 24.6252H20.7785V19.3225C20.7785 18.0581 20.754 16.4367 19.0205 16.4367C17.2869 16.4367 16.981 17.8113 16.981 19.2308V24.6252H13.6138V13.7324H16.8586V15.2171H16.9055C17.3563 14.3605 18.4596 13.457 20.1055 13.457C23.5277 13.457 24.1579 15.7127 24.1579 18.6414V24.6252Z" fill="white"/>
</svg>
