<svg width="100" height="52" viewBox="0 0 100 52" fill="none" xmlns="http://www.w3.org/2000/svg">
<g clip-path="url(#clip0_86_1881)">
<path d="M77.3356 19.8731C79.0747 20.2484 80.6689 20.9218 82.1739 21.7718C82.2185 21.8049 82.2631 21.816 82.3077 21.8491C83.1215 22.3127 83.9576 22.6991 84.8829 22.964C86.7559 23.527 88.6622 23.9134 90.602 24.1011C91.1929 24.1563 91.806 24.2004 92.3969 24.2335C93.6232 24.2777 94.8607 24.2335 96.0647 23.8913C96.5329 23.7588 96.9677 23.5712 97.3133 23.2842H97.3244C97.3913 23.229 97.4694 23.1407 97.5251 23.0744C97.592 23.0192 97.6589 22.964 97.7035 22.8868C97.7146 22.8757 97.7369 22.8426 97.7369 22.8316H97.7481C97.8484 22.677 97.8372 22.5556 97.7035 22.4121C96.4103 20.9328 95.0279 19.5529 93.4448 18.3276C92.5307 17.61 91.5608 16.9367 90.5797 16.2964C89.2308 15.4022 87.67 14.9386 86.087 14.486C85.942 14.4529 85.8083 14.3977 85.6522 14.3535C85.7525 14.221 85.8417 14.1438 85.8863 14.0223C86.0201 13.7463 86.165 13.4593 86.2207 13.1723C86.2765 12.8853 86.0201 12.5983 85.7191 12.51C85.3958 12.4106 85.2397 12.6093 85.0725 12.7859C85.0167 12.8522 84.9721 12.9294 84.9275 12.9957C84.738 13.3269 84.5485 13.658 84.3478 14.0002C84.1918 13.9561 84.0245 13.934 83.8796 13.8899C82.2743 13.5145 80.6466 13.1833 78.9744 13.371C77.6812 13.5256 76.3991 13.7132 75.1171 13.9782C74.0022 14.221 72.8986 14.5522 71.8283 14.8944C70.9142 15.1814 70.4348 15.7996 70.3233 16.6717C70.3122 16.8263 70.3568 16.9587 70.5017 17.0581C70.8361 17.2678 71.1483 17.5217 71.505 17.7204C73.2999 18.7692 75.2731 19.4425 77.3579 19.8841L77.3356 19.8731Z" fill="#C3A97C"/>
<path d="M98.0825 23.516C98.0268 23.5822 97.971 23.6595 97.893 23.7147C97.2575 24.3771 96.388 24.6862 95.4292 24.8517C95.0948 24.8959 94.7603 24.9401 94.4147 24.9621C94.1695 24.9952 93.913 25.0063 93.6566 25.0173C93.4448 25.0173 93.2219 25.0284 93.01 25.0284C92.709 25.0284 92.3969 25.0173 92.0959 24.9953C91.9621 24.9953 91.8506 24.9842 91.7168 24.9842C91.3155 24.9732 90.8919 24.929 90.5017 24.8849H90.4682C88.9298 24.7413 87.4248 24.4543 85.9197 24.079C85.7637 24.0348 85.5964 23.9907 85.4292 23.9465C84.3032 23.6485 83.2107 23.2621 82.1962 22.666C81.7614 22.4231 81.3267 22.1803 80.8807 21.9595H80.8696C79.7213 21.3965 78.5284 20.966 77.2464 20.6569C75.8974 20.3257 74.5708 19.9945 73.311 19.4536C72.3969 19.0562 71.5162 18.5815 70.602 18.1289C70.7358 18.3166 70.8919 18.5263 71.0256 18.7471C71.8841 20.1491 72.2743 21.6835 72.5195 23.2621C72.5864 23.792 72.7982 24.2225 73.1438 24.5537C73.3779 24.7634 73.6789 24.9401 74.058 25.0504C74.1137 25.0615 74.1695 25.0946 74.2363 25.1056C74.3813 25.1498 74.5262 25.194 74.6823 25.2381C75.0056 25.3375 75.3177 25.4368 75.641 25.5251C76.3099 25.7018 76.99 25.8563 77.6589 25.9888C79.5764 26.3751 81.5162 26.607 83.456 26.7394C83.5675 26.7394 83.7012 26.7505 83.8127 26.7505C83.9911 26.7615 84.1583 26.7615 84.3367 26.7836C85.0056 26.8167 85.6745 26.8277 86.3322 26.8388H86.7224C87.291 26.8388 87.8707 26.8388 88.4281 26.8057C90.0112 26.7726 91.5831 26.6622 93.155 26.4524C93.2553 26.4524 93.3556 26.4414 93.456 26.4193C93.6343 26.4083 93.7904 26.3751 93.9576 26.3641C94.4482 26.2758 94.9387 26.1875 95.4404 26.066C95.8305 25.9667 96.2207 25.8342 96.5998 25.6907C97.1349 25.492 97.6254 25.2492 97.971 24.8186C98.2943 24.4212 98.3501 23.8693 98.0825 23.4939V23.516Z" fill="#C3A97C"/>
<path d="M18.8294 5.06961L18.6957 5.13584C17.893 4.40726 16.9342 3.82218 15.8082 3.38062C14.6823 2.93905 13.4448 2.72931 12.0959 2.72931C10.7469 2.72931 9.60981 2.92801 8.53958 3.33646C7.45819 3.73387 6.53289 4.31895 5.75251 5.08065C4.97213 5.84235 4.37012 6.78067 3.94649 7.88459C3.52285 8.9885 3.29989 10.258 3.29989 11.671C3.29989 13.2275 3.50056 14.6847 3.91304 16.0315C4.32553 17.3782 4.93868 18.5484 5.75251 19.5309C6.56633 20.5134 7.58082 21.2971 8.79599 21.8601C10.0111 22.4231 11.4381 22.7101 13.0546 22.7101C13.6455 22.7101 14.2252 22.6439 14.8161 22.5225C15.4069 22.4011 15.9643 22.2244 16.4994 21.9816C17.0346 21.7387 17.5474 21.4517 18.0268 21.1095C18.5061 20.7673 18.9409 20.3809 19.3311 19.9393L19.4983 20.0497L18.2609 23.1628C17.4916 23.4608 16.6444 23.6816 15.7079 23.8472C14.7826 24.0017 13.835 24.079 12.8986 24.079C10.9922 24.079 9.25307 23.803 7.68116 23.2621C6.10925 22.7212 4.74916 21.9484 3.61204 20.9439C2.47492 19.9504 1.5942 18.7471 0.958752 17.3451C0.3233 15.9432 0.0111485 14.3866 0.0111485 12.6866C0.0111485 11.7152 0.133779 10.7658 0.39019 9.82747C0.6466 8.88915 1.01449 8.00602 1.49387 7.156C1.97324 6.30599 2.57525 5.53325 3.27759 4.82675C3.99108 4.12024 4.79376 3.50205 5.70791 2.98321C6.62207 2.46437 7.61427 2.05592 8.71795 1.76891C9.82163 1.48189 10.9922 1.33838 12.2742 1.33838C14.2586 1.33838 16.0981 1.63644 17.7926 2.24359L18.8406 5.06961H18.8294Z" fill="white"/>
<path d="M21.2486 19.1003C21.2486 18.2945 21.4158 17.599 21.7503 17.0139C22.0847 16.4288 22.5307 15.921 23.0881 15.5016C23.6455 15.0821 24.2698 14.7509 24.9833 14.486C25.6968 14.221 26.4214 14.0223 27.1906 13.8788C27.9487 13.7353 28.6957 13.6249 29.4426 13.5697C30.1784 13.5145 30.8584 13.4814 31.4827 13.4704V12.6866C31.4827 12.0132 31.3935 11.4392 31.2152 10.9424C31.0368 10.4567 30.7915 10.0482 30.4794 9.72808C30.1672 9.40795 29.777 9.16509 29.3311 9.01054C28.8852 8.85599 28.3946 8.77872 27.8595 8.77872C27.4916 8.77872 27.1237 8.81184 26.767 8.86703C26.4103 8.93327 26.0312 9.03262 25.6522 9.17613C25.262 9.31964 24.8606 9.5073 24.437 9.7612C24.0134 10.0041 23.5452 10.3132 23.0546 10.6885L22.8986 10.6002L23.9465 8.44754C24.2809 8.293 24.6154 8.17157 24.9498 8.07221C25.2731 7.97286 25.6076 7.89559 25.9532 7.84039C26.2876 7.77416 26.6444 7.74104 26.99 7.70792C27.3467 7.68584 27.7146 7.6748 28.1048 7.6748C29.1862 7.6748 30.1003 7.80727 30.8696 8.06117C31.6388 8.31508 32.2631 8.67937 32.7536 9.13197C33.2441 9.58458 33.6009 10.1145 33.8239 10.7216C34.0468 11.3288 34.1583 11.9801 34.1583 12.6645V17.6431C34.1583 18.5042 34.1695 19.2659 34.1918 19.9062C34.214 20.5575 34.2475 21.1094 34.2809 21.5731C34.3144 22.0367 34.359 22.4341 34.4147 22.7432C34.4705 23.0634 34.5262 23.3283 34.5931 23.538V23.6043H31.1817V23.538C31.2375 23.3725 31.2709 23.1958 31.2932 22.9861C31.3155 22.7874 31.3378 22.5335 31.3601 22.2575C31.1483 22.4452 30.8919 22.6328 30.602 22.8205C30.3122 23.0082 29.9777 23.1848 29.5987 23.3504C29.2196 23.516 28.8071 23.6374 28.3501 23.7368C27.893 23.8361 27.3913 23.8803 26.845 23.8803C25.0613 23.8803 23.6789 23.4608 22.6979 22.6328C21.7168 21.8049 21.2375 20.6237 21.2375 19.1003H21.2486ZM31.4716 14.6515C30.5351 14.6515 29.6321 14.7178 28.7737 14.8171C27.9153 14.9165 27.146 15.1152 26.4883 15.4243C25.8305 15.7334 25.2954 16.1639 24.9052 16.7269C24.5151 17.2899 24.3144 18.0406 24.3144 18.9789C24.3144 20.1821 24.6154 21.0984 25.2285 21.7276C25.8305 22.3569 26.6778 22.677 27.7369 22.677C28.2274 22.677 28.6845 22.6108 29.0858 22.4673C29.4872 22.3237 29.8551 22.1582 30.1672 21.9484C30.4794 21.7387 30.7469 21.5068 30.9588 21.264C31.1706 21.0101 31.3378 20.7783 31.4493 20.5354C31.4716 20.149 31.4827 19.7185 31.4827 19.2438V14.6515H31.4716Z" fill="white"/>
<path d="M44.5039 1.73579C44.2475 1.73579 43.9688 1.77995 43.6789 1.86826C43.3891 1.95657 43.1215 2.1332 42.8651 2.37606C42.6198 2.61892 42.408 2.96113 42.252 3.39166C42.0847 3.82219 42.0067 4.38518 42.0067 5.05857V7.96186C42.553 7.96186 43.0658 7.93978 43.5451 7.91771C44.0245 7.89563 44.4482 7.87355 44.8272 7.85147C45.2062 7.82939 45.5295 7.80731 45.786 7.78524C46.0424 7.76316 46.2319 7.74108 46.3434 7.719L46.0647 9.27552C45.7079 9.27552 45.3177 9.25344 44.8941 9.23136C44.5373 9.20929 44.1026 9.19825 43.612 9.18721C43.1215 9.18721 42.5864 9.16513 42.0067 9.15409V17.6211C42.0067 18.4822 42.0178 19.2439 42.0401 19.8841C42.0624 20.5244 42.0959 21.0874 42.1293 21.551C42.1628 22.0147 42.2074 22.4121 42.2631 22.7212C42.3188 23.0303 42.3746 23.3063 42.4415 23.516V23.5822H38.8852V23.516C38.9521 23.3063 39.0078 23.0413 39.0524 22.7212C39.1081 22.4011 39.1527 22.0147 39.1862 21.551C39.2308 21.0874 39.2531 20.5244 39.2754 19.8841C39.2977 19.2328 39.3088 18.4822 39.3088 17.6211V9.15409L36.7224 9.2424V7.89563C37.0457 7.91771 37.4247 7.92875 37.8595 7.93978C38.3055 7.93978 38.7848 7.95082 39.3088 7.95082V5.38974C39.3088 4.60597 39.4203 3.9105 39.6544 3.30335C39.8885 2.69619 40.2118 2.18839 40.6132 1.77995C41.0256 1.3715 41.5162 1.05136 42.0959 0.841619C42.6756 0.631876 43.2999 0.521484 43.9911 0.521484C44.3701 0.521484 44.7269 0.543563 45.0502 0.598758C45.3735 0.653954 45.6745 0.70915 45.942 0.786424C46.1984 0.852658 46.4326 0.929932 46.6332 1.00721C46.8339 1.08448 47.0011 1.15072 47.1349 1.21695L47.7369 3.84426L47.5474 3.93258C47.3802 3.68972 47.2018 3.43582 47.0123 3.18192C46.8116 2.91698 46.5998 2.68516 46.3545 2.47541C46.1093 2.26567 45.8305 2.08904 45.5295 1.94553C45.2285 1.80202 44.8829 1.73579 44.4928 1.73579H44.5039Z" fill="white"/>
<path d="M55.4961 23.8692C54.359 23.8692 53.2887 23.6925 52.2854 23.3393C51.2932 22.986 50.4236 22.4562 49.6767 21.7717C48.9409 21.0873 48.3501 20.2373 47.9264 19.2217C47.5028 18.2061 47.291 17.047 47.291 15.7444C47.291 14.5963 47.4805 13.5255 47.8818 12.543C48.272 11.5605 48.8071 10.7105 49.4983 9.98193C50.1895 9.26439 50.9922 8.69035 51.9064 8.28191C52.8205 7.87346 53.8239 7.67475 54.8941 7.67475C55.9643 7.67475 56.9342 7.85138 57.8372 8.21567C58.7402 8.57996 59.5206 9.0988 60.1895 9.78323C60.8473 10.4677 61.3712 11.3177 61.7614 12.3333C62.1516 13.3489 62.3523 14.4969 62.3857 15.7885C61.2263 15.7664 60.0669 15.7554 58.9075 15.7444C57.7481 15.7444 56.5329 15.7333 55.2843 15.7333C54.3924 15.7333 53.5229 15.7333 52.6756 15.7444C51.8283 15.7444 51.0591 15.7664 50.3902 15.7885C50.4571 16.8483 50.6243 17.8087 50.8919 18.6587C51.1594 19.5087 51.5385 20.2483 52.0178 20.8444C52.4972 21.4516 53.0769 21.9152 53.757 22.2464C54.437 22.5776 55.2174 22.7321 56.0758 22.7321C56.6667 22.7321 57.2352 22.6659 57.7592 22.5224C58.2832 22.3899 58.7737 22.1912 59.1973 21.9484C59.621 21.7055 60.0112 21.4185 60.3567 21.0873C60.7023 20.7561 60.9811 20.4029 61.2152 20.0055L61.4047 20.0938L60.2676 22.8094C59.7101 23.0964 59.0524 23.3393 58.2832 23.538C57.5139 23.7367 56.5886 23.8361 55.5072 23.8361L55.4961 23.8692ZM53.4448 14.5632C54.4705 14.5632 55.5072 14.5632 56.5329 14.5632C57.5697 14.5632 58.5061 14.5411 59.3423 14.508C59.2531 13.6248 59.0747 12.83 58.8183 12.1235C58.5619 11.417 58.2274 10.8209 57.8261 10.3352C57.4248 9.84946 56.9565 9.47413 56.4103 9.20919C55.864 8.94425 55.262 8.81178 54.6042 8.81178C54.0134 8.81178 53.456 8.94425 52.9654 9.19815C52.4638 9.45205 52.029 9.82738 51.6611 10.3241C51.2932 10.8099 50.9922 11.406 50.7692 12.1125C50.5463 12.819 50.4125 13.6248 50.3679 14.5301C50.825 14.5521 51.3155 14.5632 51.8283 14.5632H53.4337H53.4448ZM58.6176 3.43572C57.8595 3.68962 57.0903 3.9656 56.3099 4.24158C55.9755 4.36301 55.6187 4.49548 55.2508 4.63899C54.8829 4.7825 54.5039 4.93705 54.1249 5.09159C53.7458 5.25718 53.3668 5.42277 52.9766 5.58836C52.5864 5.75394 52.2185 5.93057 51.8729 6.11823L51.5385 5.55524C52.2074 5.11367 52.8763 4.63899 53.534 4.12015C54.1918 3.60131 54.8049 3.11559 55.3623 2.65194C55.9978 2.12207 56.6109 1.59219 57.2129 1.05127L58.6288 3.43572H58.6176Z" fill="white"/>
<path d="M20.379 29.3005C20.5797 29.3225 20.8027 29.3446 21.0256 29.3667C21.2263 29.3888 21.4381 29.3998 21.6834 29.3998C21.9287 29.3998 22.1739 29.3998 22.4303 29.3998C22.8317 29.3998 23.3779 29.3557 24.058 29.2563C24.738 29.157 25.6076 29.1128 26.6667 29.1128C27.6589 29.1128 28.5619 29.2563 29.398 29.5433C30.2341 29.8303 30.9588 30.2498 31.5831 30.7907C32.1962 31.3427 32.6756 32.005 33.0212 32.7999C33.3668 33.5836 33.534 34.4889 33.534 35.4934C33.534 36.8512 33.2664 38.0214 32.7202 39.0039C32.1739 39.9863 31.4493 40.7922 30.5351 41.3994C29.621 42.0065 28.5619 42.426 27.3802 42.6468C26.1873 42.8676 24.9387 42.8786 23.6343 42.6799V45.2189C23.6343 46.0799 23.6455 46.8416 23.6678 47.4819C23.6901 48.1332 23.7235 48.6852 23.757 49.1488C23.7904 49.6125 23.835 50.0099 23.8908 50.319C23.9465 50.6281 24.0022 50.9041 24.0691 51.1138V51.18H20.3679V51.1138C20.4348 50.9041 20.4905 50.6391 20.5463 50.319C20.602 49.9988 20.6466 49.6125 20.6912 49.1488C20.7358 48.6852 20.7581 48.1222 20.7804 47.4819C20.8027 46.8306 20.8138 46.0799 20.8138 45.2189V35.2837C20.8138 34.4226 20.8138 33.6609 20.7804 33.0206C20.7581 32.3693 20.7246 31.8174 20.6912 31.3427C20.6466 30.868 20.602 30.4706 20.5463 30.1615C20.4905 29.8414 20.4348 29.5764 20.3679 29.3667V29.3005H20.379ZM23.6343 41.4987C24.6377 41.6864 25.563 41.6974 26.3991 41.5539C27.2352 41.4104 27.9599 41.0903 28.5619 40.6045C29.1639 40.1188 29.6321 39.4675 29.9666 38.6396C30.301 37.8116 30.4682 36.8071 30.4682 35.6148C30.4682 34.7869 30.379 34.0362 30.2118 33.3629C30.0446 32.6895 29.777 32.1154 29.4314 31.6408C29.0858 31.1661 28.6511 30.8018 28.1271 30.5368C27.6031 30.2829 26.99 30.1505 26.2876 30.1505C25.8417 30.1505 25.4627 30.1725 25.1282 30.2057C24.7938 30.2388 24.5262 30.2829 24.2921 30.3161C24.0245 30.3713 23.8016 30.4265 23.6343 30.4816V41.4877V41.4987Z" fill="white"/>
<path d="M36.8116 41.5317C36.8116 40.6706 36.8005 39.9089 36.7782 39.2686C36.7559 38.6173 36.7224 38.0654 36.689 37.6017C36.6555 37.1381 36.6109 36.7407 36.5552 36.4316C36.4994 36.1114 36.4437 35.8465 36.3768 35.6368V35.5705H39.9331V35.6368C39.8662 35.8465 39.8105 36.1114 39.7659 36.4316C39.7101 36.7517 39.6656 37.1381 39.6321 37.6017C39.5875 38.0654 39.5652 38.6284 39.5429 39.2686C39.5206 39.9089 39.5095 40.6706 39.5095 41.5317V45.2298C39.5095 46.0908 39.5095 46.8525 39.5429 47.4928C39.5764 48.1331 39.5987 48.6961 39.6321 49.1597C39.6767 49.6233 39.7213 50.0208 39.7659 50.3299C39.8216 50.65 39.8774 50.9149 39.9331 51.1247V51.1909H36.3768V51.1247C36.4437 50.9149 36.4994 50.65 36.5552 50.3299C36.6109 50.0097 36.6555 49.6233 36.689 49.1597C36.7224 48.6961 36.7559 48.1331 36.7782 47.4928C36.8005 46.8415 36.8116 46.0908 36.8116 45.2298V41.5317ZM36.4883 30.9341C36.4883 30.7133 36.5329 30.5036 36.6221 30.3049C36.7113 30.1061 36.8227 29.9295 36.9677 29.786C37.1126 29.6425 37.2798 29.5211 37.4805 29.4328C37.6812 29.3445 37.9041 29.3003 38.1382 29.3003C38.3724 29.3003 38.5953 29.3445 38.796 29.4328C38.9967 29.5211 39.175 29.6315 39.32 29.786C39.4649 29.9295 39.5875 30.1061 39.6767 30.3049C39.7659 30.5036 39.8105 30.7133 39.8105 30.9341C39.8105 31.3977 39.6544 31.7951 39.3311 32.1042C39.0078 32.4133 38.6176 32.5789 38.1494 32.5789C37.9153 32.5789 37.6923 32.5348 37.4916 32.4464C37.291 32.3581 37.1237 32.2477 36.9788 32.0932C36.8339 31.9497 36.7224 31.7731 36.6332 31.5744C36.544 31.3757 36.4994 31.1549 36.4994 30.923L36.4883 30.9341Z" fill="white"/>
<path d="M51.2375 51.4669C50.1003 51.4669 49.0301 51.2902 48.0268 50.937C47.0346 50.5837 46.165 50.0539 45.4181 49.3694C44.6823 48.685 44.0914 47.835 43.6678 46.8194C43.2442 45.8038 43.0323 44.6447 43.0323 43.3421C43.0323 42.194 43.2219 41.1232 43.6232 40.1407C44.0134 39.1582 44.5485 38.3082 45.2397 37.5796C45.9309 36.8621 46.7336 36.2881 47.6477 35.8796C48.5619 35.4712 49.5652 35.2725 50.6355 35.2725C51.7057 35.2725 52.6756 35.4491 53.5786 35.8134C54.4816 36.1777 55.262 36.6965 55.9309 37.3809C56.5886 38.0654 57.1126 38.9154 57.5028 39.931C57.893 40.9466 58.0937 42.0946 58.1271 43.3862C56.9677 43.3641 55.8083 43.3531 54.6488 43.3421C53.4894 43.3421 52.2743 43.331 51.0256 43.331C50.1338 43.331 49.2642 43.331 48.417 43.3421C47.5697 43.3421 46.8005 43.3641 46.1316 43.3862C46.1984 44.446 46.3657 45.4064 46.6332 46.2564C46.9008 47.1064 47.2798 47.846 47.7592 48.4422C48.2386 49.0493 48.8183 49.5129 49.4983 49.8441C50.1784 50.1753 50.9588 50.3298 51.8172 50.3298C52.408 50.3298 52.9766 50.2636 53.5006 50.1201C54.0245 49.9876 54.5151 49.7889 54.9387 49.5461C55.3623 49.3032 55.7525 49.0162 56.0981 48.685C56.4437 48.3538 56.7224 48.0006 56.9565 47.6032L57.146 47.6915L56.0089 50.4071C55.4515 50.6941 54.7938 50.937 54.0245 51.1357C53.2553 51.3344 52.33 51.4338 51.2486 51.4338L51.2375 51.4669ZM49.1862 42.1609C50.2118 42.1609 51.2486 42.1609 52.2743 42.1609C53.311 42.1609 54.2475 42.1388 55.0836 42.1057C54.9944 41.2226 54.8161 40.4277 54.5596 39.7212C54.3032 39.0147 53.9688 38.4186 53.5675 37.9329C53.1661 37.4472 52.6979 37.0718 52.1516 36.8069C51.6054 36.542 51.0033 36.4095 50.3456 36.4095C49.7547 36.4095 49.1973 36.542 48.7068 36.7959C48.2051 37.0498 47.7704 37.4251 47.4025 37.9219C47.0346 38.4076 46.7336 39.0037 46.5106 39.7102C46.2876 40.4167 46.1539 41.2226 46.1093 42.1278C46.5663 42.1498 47.0569 42.1609 47.5697 42.1609H49.175H49.1862Z" fill="white"/>
<path d="M61.4493 41.5318C61.4493 40.6708 61.4381 39.9091 61.4158 39.2688C61.3935 38.6175 61.3601 38.0656 61.3266 37.6019C61.2932 37.1383 61.2486 36.7409 61.1929 36.4318C61.1371 36.1116 61.0814 35.8467 61.0145 35.6369V35.5707H64.5708V35.6369C64.4928 35.8688 64.4147 36.1558 64.359 36.487C64.3032 36.8181 64.2586 37.2597 64.2252 37.7896C64.6042 37.4694 65.0056 37.1603 65.4069 36.8623C65.8194 36.5532 66.243 36.2883 66.6667 36.0564C67.0903 35.8246 67.5362 35.6369 67.9822 35.4934C68.4281 35.3499 68.874 35.2837 69.3311 35.2837C69.6098 35.2837 69.8551 35.2947 70.0557 35.3168C70.2564 35.3389 70.4459 35.383 70.6132 35.4272C70.7804 35.4714 70.9253 35.5266 71.0591 35.5817C71.1929 35.6369 71.3266 35.6921 71.4493 35.7473L70.6912 38.6617L70.4348 38.5954C70.3122 38.1428 70.078 37.7896 69.7436 37.5136C69.4091 37.2487 68.9409 37.1052 68.3612 37.1052C68.0379 37.1052 67.7035 37.1603 67.3579 37.2707C67.0123 37.3811 66.6555 37.5357 66.2988 37.7344C65.942 37.9331 65.5741 38.1649 65.2174 38.4188C64.8607 38.6727 64.5039 38.9487 64.1695 39.2357C64.1472 39.5338 64.136 39.8539 64.136 40.1961V45.23C64.136 46.091 64.136 46.8527 64.1695 47.493C64.2029 48.1332 64.2252 48.6962 64.2586 49.1599C64.3032 49.6235 64.3478 50.0209 64.3924 50.33C64.4482 50.6502 64.5039 50.9151 64.5596 51.1249V51.1911H61.0033V51.1249C61.0702 50.9151 61.126 50.6502 61.1817 50.33C61.2375 50.0099 61.2821 49.6235 61.3155 49.1599C61.3489 48.6962 61.3824 48.1332 61.4047 47.493C61.427 46.8417 61.4381 46.091 61.4381 45.23V41.5318H61.4493Z" fill="white"/>
<path d="M73.8239 41.5318C73.8239 40.6708 73.8127 39.9091 73.7904 39.2688C73.7681 38.6175 73.7347 38.0656 73.7012 37.6019C73.6678 37.1383 73.6232 36.7409 73.5675 36.4318C73.5117 36.1116 73.456 35.8467 73.3891 35.6369V35.5707H76.9454V35.6369C76.8673 35.8688 76.7893 36.1558 76.7336 36.487C76.6778 36.8181 76.6332 37.2597 76.5998 37.7896C76.9788 37.4694 77.3802 37.1603 77.7815 36.8623C78.194 36.5532 78.6176 36.2883 79.0413 36.0564C79.4649 35.8246 79.9108 35.6369 80.3568 35.4934C80.8027 35.3499 81.2486 35.2837 81.7057 35.2837C81.9844 35.2837 82.2297 35.2947 82.4303 35.3168C82.631 35.3389 82.8205 35.383 82.9878 35.4272C83.155 35.4714 83.2999 35.5266 83.4337 35.5817C83.5675 35.6369 83.7012 35.6921 83.8239 35.7473L83.0658 38.6617L82.8094 38.5954C82.6867 38.1428 82.4526 37.7896 82.1182 37.5136C81.7837 37.2487 81.3155 37.1052 80.7358 37.1052C80.4125 37.1052 80.078 37.1603 79.7324 37.2707C79.3869 37.3811 79.0301 37.5357 78.6734 37.7344C78.3166 37.9331 77.9487 38.1649 77.592 38.4188C77.2352 38.6727 76.8785 38.9487 76.5441 39.2357C76.5218 39.5338 76.5106 39.8539 76.5106 40.1961V45.23C76.5106 46.091 76.5106 46.8527 76.5441 47.493C76.5775 48.1332 76.5998 48.6962 76.6332 49.1599C76.6778 49.6235 76.7224 50.0209 76.767 50.33C76.8228 50.6502 76.8785 50.9151 76.9342 51.1249V51.1911H73.3779V51.1249C73.4448 50.9151 73.5006 50.6502 73.5563 50.33C73.6121 50.0099 73.6566 49.6235 73.6901 49.1599C73.7235 48.6962 73.757 48.1332 73.7793 47.493C73.8016 46.8417 73.8127 46.091 73.8127 45.23V41.5318H73.8239Z" fill="white"/>
<path d="M93.1104 51.4669C91.9732 51.4669 90.903 51.2902 89.8997 50.937C88.9075 50.5837 88.0379 50.0539 87.291 49.3694C86.5552 48.685 85.9643 47.835 85.5407 46.8194C85.1171 45.8038 84.9053 44.6447 84.9053 43.3421C84.9053 42.194 85.0948 41.1232 85.4961 40.1407C85.8863 39.1582 86.4214 38.3082 87.1126 37.5796C87.8038 36.8621 88.6065 36.2881 89.5206 35.8796C90.4348 35.4712 91.4381 35.2725 92.5084 35.2725C93.5786 35.2725 94.5485 35.4491 95.4515 35.8134C96.3545 36.1777 97.1349 36.6965 97.8038 37.3809C98.4615 38.0654 98.9855 38.9154 99.3757 39.931C99.7659 40.9466 99.9666 42.0946 100 43.3862C98.8406 43.3641 97.6812 43.3531 96.5106 43.3421C95.34 43.331 94.1472 43.331 92.8874 43.331C91.9955 43.331 91.126 43.331 90.2787 43.3421C89.4314 43.3421 88.6622 43.3641 87.9933 43.3862C88.0602 44.446 88.2274 45.4064 88.495 46.2564C88.7625 47.1064 89.1416 47.846 89.621 48.4422C90.1003 49.0493 90.68 49.5129 91.3601 49.8441C92.0401 50.1753 92.8205 50.3298 93.6789 50.3298C94.2698 50.3298 94.8384 50.2636 95.3623 50.1201C95.8863 49.9766 96.3768 49.7889 96.8005 49.5461C97.2352 49.3032 97.6143 49.0162 97.9599 48.685C98.2943 48.3538 98.5842 48.0006 98.8183 47.6032L99.0078 47.6915L97.8707 50.4071C97.3133 50.6941 96.6555 50.937 95.8863 51.1357C95.1171 51.3344 94.1918 51.4338 93.1104 51.4338V51.4669ZM91.0591 42.1609C92.0847 42.1609 93.1215 42.1609 94.1472 42.1609C95.184 42.1609 96.1204 42.1388 96.9565 42.1057C96.8673 41.2226 96.689 40.4277 96.4326 39.7212C96.1762 39.0147 95.8417 38.4186 95.4404 37.9329C95.039 37.4472 94.5708 37.0718 94.0245 36.8069C93.4783 36.542 92.8763 36.4095 92.2185 36.4095C91.6277 36.4095 91.0702 36.542 90.5797 36.7959C90.078 37.0498 89.6433 37.4251 89.2754 37.9219C88.9075 38.4076 88.6065 39.0037 88.3835 39.7102C88.1605 40.4167 88.0268 41.2226 87.9822 42.1278C88.4392 42.1498 88.9298 42.1609 89.4426 42.1609H91.0479H91.0591Z" fill="white"/>
</g>
<defs>
<clipPath id="clip0_86_1881">
<rect width="100" height="50.9346" fill="white" transform="translate(0 0.532715)"/>
</clipPath>
</defs>
</svg>
