<svg width="31" height="32" viewBox="0 0 31 32" fill="none" xmlns="http://www.w3.org/2000/svg">
<g clip-path="url(#clip0_93_700)">
<path fill-rule="evenodd" clip-rule="evenodd" d="M12.5351 7.90016C15.3713 6.26267 18.998 7.23445 20.6355 10.0706C21.7483 11.9981 21.6557 14.2905 20.5921 16.0756L15.5001 24.8953L10.3647 16.0005C8.72717 13.1643 9.69894 9.53765 12.5351 7.90016ZM14.1277 10.6586C12.8149 11.4165 12.3652 13.0951 13.1231 14.4079C13.881 15.7207 15.5596 16.1704 16.8724 15.4126C18.1852 14.6546 18.635 12.976 17.8771 11.6633C17.1191 10.3505 15.4405 9.90075 14.1277 10.6586ZM15.5 0.530273C6.95629 0.530273 0.0302734 7.45629 0.0302734 16C0.0302734 24.5437 6.95629 31.4697 15.5 31.4697C24.0437 31.4697 30.9697 24.5437 30.9697 16C30.9697 7.45629 24.0437 0.530273 15.5 0.530273Z" fill="#C3A97C"/>
</g>
<defs>
<clipPath id="clip0_93_700">
<rect width="31" height="31" fill="white" transform="translate(0 0.5)"/>
</clipPath>
</defs>
</svg>
